<svg width="313" height="338" viewBox="0 0 313 338" fill="none" xmlns="http://www.w3.org/2000/svg">
<path d="M265.604 72.3037L265.841 72.6904L266.249 72.4932L341.504 36.0479L339.614 119.642L339.604 120.095L340.055 120.149L423.065 130.176L376.283 199.479L376.029 199.854L376.378 200.144L440.791 253.457L363.967 286.465L363.551 286.644L363.688 287.076L389.052 366.751L306.578 352.984L306.131 352.91L306.013 353.348L284.274 434.086L222.336 377.918L222 377.613L221.664 377.918L159.725 434.086L137.987 353.348L137.869 352.91L137.422 352.984L54.9473 366.751L80.3115 287.076L80.4492 286.644L80.0332 286.465L3.20801 253.457L67.6221 200.144L67.9707 199.854L67.7168 199.479L20.9336 130.176L103.945 120.149L104.396 120.095L104.386 119.642L102.495 36.0479L177.751 72.4932L178.159 72.6904L178.396 72.3037L222 0.958984L265.604 72.3037Z" fill="#F8EED5" stroke="#111111"/>
<path d="M250.135 124.991L250.371 125.378L250.779 125.181L299.334 101.666L298.115 155.602L298.104 156.055L298.555 156.109L352.114 162.578L321.93 207.293L321.676 207.669L322.025 207.958L363.585 242.356L314.018 263.653L313.601 263.833L313.738 264.265L330.104 315.672L276.891 306.79L276.443 306.715L276.325 307.153L262.299 359.247L222.336 323.006L222 322.701L221.664 323.006L181.7 359.247L167.675 307.153L167.557 306.715L167.109 306.79L113.896 315.672L130.262 264.265L130.399 263.833L129.982 263.653L80.4141 242.356L121.975 207.958L122.324 207.669L122.07 207.293L91.8848 162.578L145.445 156.109L145.896 156.055L145.885 155.602L144.665 101.666L193.221 125.181L193.629 125.378L193.865 124.991L222 78.958L250.135 124.991Z" fill="#EDD5BF" stroke="#111111"/>
<path d="M236.846 170.249L237.082 170.636L237.49 170.438L263.111 158.03L262.468 186.49L262.458 186.943L262.908 186.998L291.169 190.411L275.242 214.006L274.988 214.382L275.338 214.671L297.267 232.821L271.112 244.06L270.695 244.238L270.833 244.671L279.467 271.795L251.39 267.109L250.942 267.035L250.824 267.473L243.423 294.961L222.336 275.838L222 275.533L221.664 275.838L200.576 294.961L193.176 267.473L193.058 267.035L192.61 267.109L164.532 271.795L173.167 244.671L173.305 244.238L172.888 244.06L146.732 232.821L168.662 214.671L169.012 214.382L168.758 214.006L152.83 190.411L181.092 186.998L181.542 186.943L181.532 186.49L180.888 158.03L206.51 170.438L206.918 170.636L207.154 170.249L222 145.959L236.846 170.249Z" fill="#DC7E7E" stroke="#111111"/>
</svg>
