<svg width="24" height="24" viewBox="0 0 24 24" fill="none" xmlns="http://www.w3.org/2000/svg">
<path d="M8.75 5.75C8.75 4.88805 9.09241 4.0614 9.7019 3.4519C10.3114 2.84241 11.138 2.5 12 2.5C12.862 2.5 13.6886 2.84241 14.2981 3.4519C14.9076 4.0614 15.25 4.88805 15.25 5.75C15.25 6.61195 14.9076 7.4386 14.2981 8.0481C13.6886 8.65759 12.862 9 12 9C11.138 9 10.3114 8.65759 9.7019 8.0481C9.09241 7.4386 8.75 6.61195 8.75 5.75ZM4.75 4.5C4.02065 4.5 3.32118 4.78973 2.80546 5.30546C2.28973 5.82118 2 6.52065 2 7.25C2 7.97935 2.28973 8.67882 2.80546 9.19454C3.32118 9.71027 4.02065 10 4.75 10C5.47935 10 6.17882 9.71027 6.69454 9.19454C7.21027 8.67882 7.5 7.97935 7.5 7.25C7.5 6.52065 7.21027 5.82118 6.69454 5.30546C6.17882 4.78973 5.47935 4.5 4.75 4.5ZM19.25 4.5C18.5207 4.5 17.8212 4.78973 17.3055 5.30546C16.7897 5.82118 16.5 6.52065 16.5 7.25C16.5 7.97935 16.7897 8.67882 17.3055 9.19454C17.8212 9.71027 18.5207 10 19.25 10C19.9793 10 20.6788 9.71027 21.1945 9.19454C21.7103 8.67882 22 7.97935 22 7.25C22 6.52065 21.7103 5.82118 21.1945 5.30546C20.6788 4.78973 19.9793 4.5 19.25 4.5ZM9.125 10.5C8.69402 10.5 8.2807 10.6712 7.97595 10.976C7.67121 11.2807 7.5 11.694 7.5 12.125V16C7.5 17.1935 7.97411 18.3381 8.81802 19.182C9.66193 20.0259 10.8065 20.5 12 20.5C13.1935 20.5 14.3381 20.0259 15.182 19.182C16.0259 18.3381 16.5 17.1935 16.5 16V12.125C16.5 11.694 16.3288 11.2807 16.024 10.976C15.7193 10.6712 15.306 10.5 14.875 10.5H9.125ZM6.576 11.495C6.52567 11.697 6.50033 11.907 6.5 12.125V16C6.49923 16.8205 6.68241 17.6308 7.03605 18.3712C7.38969 19.1117 7.9048 19.7634 8.5435 20.2785C8.46783 20.3035 8.39117 20.3262 8.3135 20.3465C7.74268 20.4996 7.14729 20.5387 6.56135 20.4616C5.97541 20.3846 5.41039 20.1928 4.89854 19.8974C4.3867 19.602 3.93806 19.2086 3.57825 18.7398C3.21844 18.271 2.9545 17.7358 2.8015 17.165L2.057 14.388C2.00181 14.1819 1.98776 13.9669 2.01566 13.7553C2.04356 13.5437 2.11285 13.3397 2.2196 13.1549C2.32634 12.9701 2.46843 12.8082 2.63777 12.6783C2.8071 12.5484 3.00036 12.4532 3.2065 12.398L6.576 11.495ZM15.456 20.2785C16.0948 19.7634 16.61 19.1117 16.9637 18.3713C17.3175 17.6309 17.5007 16.8206 17.5 16V12.125C17.4993 11.907 17.474 11.697 17.424 11.495L20.793 12.3975C21.2092 12.5091 21.5641 12.7814 21.7796 13.1546C21.9951 13.5278 22.0535 13.9712 21.942 14.3875L21.198 17.1645C21.0399 17.7549 20.7631 18.3068 20.3846 18.7867C20.0062 19.2666 19.5339 19.6644 18.9967 19.9558C18.4594 20.2471 17.8685 20.426 17.2598 20.4815C16.6512 20.537 16.0371 20.4679 15.456 20.2785Z" fill="black"/>
</svg>
