<svg width="24" height="24" viewBox="0 0 24 24" fill="none" xmlns="http://www.w3.org/2000/svg">
<path d="M12 3.75C11.5027 3.75 11.0258 3.94754 10.6742 4.29917C10.3225 4.65081 10.125 5.12772 10.125 5.625C10.125 6.12228 10.3225 6.59919 10.6742 6.95083C11.0258 7.30246 11.5027 7.5 12 7.5C12.4973 7.5 12.9742 7.30246 13.3258 6.95083C13.6775 6.59919 13.875 6.12228 13.875 5.625C13.875 5.12772 13.6775 4.65081 13.3258 4.29917C12.9742 3.94754 12.4973 3.75 12 3.75ZM8.625 5.625C8.625 4.72989 8.98058 3.87145 9.61351 3.23851C10.2465 2.60558 11.1049 2.25 12 2.25C12.8951 2.25 13.7535 2.60558 14.3865 3.23851C15.0194 3.87145 15.375 4.72989 15.375 5.625C15.375 6.52011 15.0194 7.37855 14.3865 8.01149C13.7535 8.64442 12.8951 9 12 9C11.1049 9 10.2465 8.64442 9.61351 8.01149C8.98058 7.37855 8.625 6.52011 8.625 5.625ZM4.5 6C4.10218 6 3.72064 6.15804 3.43934 6.43934C3.15804 6.72064 3 7.10218 3 7.5C3 7.89782 3.15804 8.27936 3.43934 8.56066C3.72064 8.84196 4.10218 9 4.5 9C4.89782 9 5.27936 8.84196 5.56066 8.56066C5.84196 8.27936 6 7.89782 6 7.5C6 7.10218 5.84196 6.72064 5.56066 6.43934C5.27936 6.15804 4.89782 6 4.5 6ZM1.5 7.5C1.5 6.70435 1.81607 5.94129 2.37868 5.37868C2.94129 4.81607 3.70435 4.5 4.5 4.5C5.29565 4.5 6.05871 4.81607 6.62132 5.37868C7.18393 5.94129 7.5 6.70435 7.5 7.5C7.5 8.29565 7.18393 9.05871 6.62132 9.62132C6.05871 10.1839 5.29565 10.5 4.5 10.5C3.70435 10.5 2.94129 10.1839 2.37868 9.62132C1.81607 9.05871 1.5 8.29565 1.5 7.5ZM18 7.5C18 7.10218 18.158 6.72064 18.4393 6.43934C18.7206 6.15804 19.1022 6 19.5 6C19.8978 6 20.2794 6.15804 20.5607 6.43934C20.842 6.72064 21 7.10218 21 7.5C21 7.89782 20.842 8.27936 20.5607 8.56066C20.2794 8.84196 19.8978 9 19.5 9C19.1022 9 18.7206 8.84196 18.4393 8.56066C18.158 8.27936 18 7.89782 18 7.5ZM19.5 4.5C18.7044 4.5 17.9413 4.81607 17.3787 5.37868C16.8161 5.94129 16.5 6.70435 16.5 7.5C16.5 8.29565 16.8161 9.05871 17.3787 9.62132C17.9413 10.1839 18.7044 10.5 19.5 10.5C20.2956 10.5 21.0587 10.1839 21.6213 9.62132C22.1839 9.05871 22.5 8.29565 22.5 7.5C22.5 6.70435 22.1839 5.94129 21.6213 5.37868C21.0587 4.81607 20.2956 4.5 19.5 4.5ZM6.375 12.375C6.375 12.208 6.38825 12.0452 6.41475 11.8868L2.88975 12.831C2.4095 12.9598 2.00008 13.2741 1.75155 13.7048C1.50303 14.1355 1.43574 14.6472 1.5645 15.1275L2.244 17.6625C2.40802 18.275 2.69962 18.8459 3.0997 19.3378C3.49978 19.8298 3.9993 20.2316 4.56553 20.5169C5.13175 20.8023 5.75189 20.9648 6.3853 20.9938C7.01871 21.0227 7.6511 20.9175 8.241 20.685C7.83557 20.3211 7.48516 19.9002 7.20075 19.4355C6.45073 19.5913 5.66954 19.4542 5.01733 19.0525C4.36511 18.6507 3.89129 18.0147 3.693 17.2748L3.0135 14.7397C3.00068 14.6922 2.99735 14.6425 3.00372 14.5937C3.01009 14.5448 3.02602 14.4977 3.05061 14.455C3.07519 14.4123 3.10795 14.3749 3.14701 14.3449C3.18607 14.3148 3.23067 14.2928 3.27825 14.28L6.375 13.4505V12.375ZM16.2428 20.8447C16.0784 20.8009 15.9166 20.7479 15.7582 20.6857C16.1639 20.3219 16.5146 19.901 16.7992 19.4363C17.5492 19.5916 18.3301 19.4542 18.9819 19.0523C19.6338 18.6504 20.1074 18.0145 20.3055 17.2748L20.9842 14.739C21.0099 14.643 20.9965 14.5408 20.9468 14.4547C20.8972 14.3687 20.8154 14.3058 20.7195 14.28L17.625 13.4505V12.375C17.625 12.209 17.6117 12.0465 17.5853 11.8875L21.108 12.831C21.5883 12.9598 21.9977 13.2741 22.2462 13.7048C22.4947 14.1355 22.562 14.6472 22.4333 15.1275L21.7537 17.6625C21.4449 18.8153 20.6908 19.7982 19.6573 20.3949C18.6238 20.9917 17.3955 21.1535 16.2428 20.8447ZM9.375 10.5C8.87772 10.5 8.40081 10.6975 8.04917 11.0492C7.69754 11.4008 7.5 11.8777 7.5 12.375V16.5C7.5 17.6935 7.97411 18.8381 8.81802 19.682C9.66193 20.5259 10.8065 21 12 21C13.1935 21 14.3381 20.5259 15.182 19.682C16.0259 18.8381 16.5 17.6935 16.5 16.5V12.375C16.5 11.8777 16.3025 11.4008 15.9508 11.0492C15.5992 10.6975 15.1223 10.5 14.625 10.5H9.375ZM9 12.375C9 12.2755 9.03951 12.1802 9.10983 12.1098C9.18016 12.0395 9.27554 12 9.375 12H14.625C14.7245 12 14.8198 12.0395 14.8902 12.1098C14.9605 12.1802 15 12.2755 15 12.375V16.5C15 17.2956 14.6839 18.0587 14.1213 18.6213C13.5587 19.1839 12.7956 19.5 12 19.5C11.2044 19.5 10.4413 19.1839 9.87868 18.6213C9.31607 18.0587 9 17.2956 9 16.5V12.375Z" fill="black"/>
</svg>
