<svg width="24" height="24" viewBox="0 0 24 24" fill="none" xmlns="http://www.w3.org/2000/svg">
<path d="M12.0004 2.5C12.1328 2.50011 12.2602 2.55284 12.3539 2.64648L21.347 11.6396V11.6406C21.4381 11.7349 21.4888 11.8611 21.4877 11.9922C21.4864 12.1231 21.4337 12.2482 21.3412 12.3408C21.2485 12.4335 21.1227 12.4862 20.9916 12.4873C20.8606 12.4883 20.7342 12.4377 20.64 12.3467L19.5004 11.207V19C19.5003 19.6629 19.2367 20.2988 18.7679 20.7676C18.2992 21.2363 17.6633 21.4999 17.0004 21.5H7.00037C6.33732 21.5 5.70065 21.2364 5.23181 20.7676C4.76313 20.2988 4.50042 19.6629 4.50037 19V11.207L3.35388 12.3535H3.35291L3.34705 12.3594C3.30094 12.4071 3.24589 12.4455 3.18494 12.4717C3.12397 12.4978 3.05792 12.5111 2.99158 12.5117C2.92534 12.5122 2.85953 12.4997 2.79822 12.4746C2.73684 12.4495 2.68105 12.4121 2.63416 12.3652C2.58729 12.3183 2.54989 12.2625 2.52478 12.2012C2.49972 12.1398 2.48711 12.0741 2.48767 12.0078C2.48825 11.9414 2.50248 11.8755 2.52869 11.8145C2.55487 11.7537 2.59241 11.6983 2.64001 11.6523L2.64685 11.6465L11.6469 2.64648C11.7406 2.55284 11.8679 2.5 12.0004 2.5Z" fill="#6B4EFF" stroke="#6B4EFF"/>
</svg>
