<svg width="24" height="24" viewBox="0 0 24 24" fill="none" xmlns="http://www.w3.org/2000/svg">
<path d="M12.0004 2.5C12.1329 2.50011 12.2603 2.55284 12.3539 2.64648L21.3471 11.6396V11.6406C21.4381 11.7349 21.4889 11.8611 21.4877 11.9922C21.4865 12.1231 21.4338 12.2482 21.3412 12.3408C21.2485 12.4335 21.1227 12.4862 20.9916 12.4873C20.8607 12.4883 20.7343 12.4377 20.6401 12.3467L19.5004 11.207V19C19.5004 19.6629 19.2367 20.2988 18.768 20.7676C18.2993 21.2363 17.6633 21.4999 17.0004 21.5H7.00043C6.33739 21.5 5.70071 21.2364 5.23187 20.7676C4.76319 20.2988 4.50048 19.6629 4.50043 19V11.207L3.35394 12.3535H3.35297L3.34711 12.3594C3.301 12.4071 3.24595 12.4455 3.185 12.4717C3.12404 12.4978 3.05798 12.5111 2.99164 12.5117C2.9254 12.5122 2.8596 12.4997 2.79828 12.4746C2.7369 12.4495 2.68112 12.4121 2.63422 12.3652C2.58735 12.3183 2.54995 12.2625 2.52484 12.2012C2.49978 12.1398 2.48717 12.0741 2.48773 12.0078C2.48831 11.9414 2.50254 11.8755 2.52875 11.8145C2.55493 11.7537 2.59247 11.6983 2.64008 11.6523L2.64691 11.6465L11.6469 2.64648C11.7407 2.55284 11.8679 2.5 12.0004 2.5Z" fill="#9990FF" stroke="#9990FF"/>
</svg>
