<svg width="24" height="24" viewBox="0 0 24 24" fill="none" xmlns="http://www.w3.org/2000/svg">
<path d="M20.0187 9.74934C20.0187 9.55043 19.9397 9.35966 19.799 9.21901C19.6584 9.07836 19.4676 8.99934 19.2687 8.99934C19.0698 8.99934 18.879 9.07836 18.7384 9.21901C18.5977 9.35966 18.5187 9.55043 18.5187 9.74934H20.0187ZM6.01871 9.74934C6.01871 9.55043 5.93969 9.35966 5.79904 9.21901C5.65839 9.07836 5.46762 8.99934 5.26871 8.99934C5.0698 8.99934 4.87903 9.07836 4.73838 9.21901C4.59773 9.35966 4.51871 9.55043 4.51871 9.74934H6.01871ZM20.7387 12.2793C20.8074 12.353 20.8902 12.4121 20.9822 12.4531C21.0742 12.4941 21.1735 12.5162 21.2742 12.5179C21.3749 12.5197 21.4749 12.5012 21.5683 12.4635C21.6617 12.4257 21.7465 12.3696 21.8177 12.2984C21.889 12.2272 21.9451 12.1423 21.9828 12.0489C22.0206 11.9555 22.0391 11.8555 22.0373 11.7548C22.0355 11.6541 22.0135 11.5548 21.9725 11.4628C21.9315 11.3708 21.8724 11.288 21.7987 11.2193L20.7387 12.2793ZM12.2687 2.74934L12.7987 2.21934C12.6581 2.07889 12.4675 2 12.2687 2C12.07 2 11.8793 2.07889 11.7387 2.21934L12.2687 2.74934ZM2.73871 11.2193C2.66502 11.288 2.60592 11.3708 2.56493 11.4628C2.52394 11.5548 2.50189 11.6541 2.50012 11.7548C2.49834 11.8555 2.51686 11.9555 2.55459 12.0489C2.59231 12.1423 2.64845 12.2272 2.71967 12.2984C2.79089 12.3696 2.87572 12.4257 2.96911 12.4635C3.0625 12.5012 3.16253 12.5197 3.26323 12.5179C3.36393 12.5162 3.46325 12.4941 3.55525 12.4531C3.64725 12.4121 3.73005 12.353 3.79871 12.2793L2.73871 11.2193ZM7.26871 21.4993H17.2687V19.9993H7.26871V21.4993ZM20.0187 18.7493V9.74934H18.5187V18.7493H20.0187ZM6.01871 18.7493V9.74934H4.51871V18.7493H6.01871ZM21.7987 11.2193L12.7987 2.21934L11.7387 3.27934L20.7387 12.2793L21.7987 11.2193ZM11.7387 2.21934L2.73871 11.2193L3.79871 12.2793L12.7987 3.27934L11.7387 2.21934ZM17.2687 21.4993C17.9981 21.4993 18.6975 21.2096 19.2133 20.6939C19.729 20.1782 20.0187 19.4787 20.0187 18.7493H18.5187C18.5187 19.4393 17.9587 19.9993 17.2687 19.9993V21.4993ZM7.26871 19.9993C6.57871 19.9993 6.01871 19.4393 6.01871 18.7493H4.51871C4.51871 19.4787 4.80844 20.1782 5.32416 20.6939C5.83989 21.2096 6.53936 21.4993 7.26871 21.4993V19.9993Z" fill="#979C9E"/>
</svg>
