<svg width="25" height="24" viewBox="0 0 25 24" fill="none" xmlns="http://www.w3.org/2000/svg">
<path fill-rule="evenodd" clip-rule="evenodd" d="M13.207 2.29279C13.0195 2.10532 12.7652 2 12.5 2C12.2348 2 11.9805 2.10532 11.793 2.29279L4.793 9.29279L2.793 11.2928C2.69749 11.385 2.62131 11.4954 2.5689 11.6174C2.51649 11.7394 2.48891 11.8706 2.48775 12.0034C2.4866 12.1362 2.5119 12.2678 2.56218 12.3907C2.61246 12.5136 2.68672 12.6253 2.78061 12.7192C2.8745 12.8131 2.98615 12.8873 3.10905 12.9376C3.23195 12.9879 3.36363 13.0132 3.49641 13.012C3.62919 13.0109 3.76041 12.9833 3.88241 12.9309C4.00441 12.8785 4.11476 12.8023 4.207 12.7068L4.5 12.4138V18.9998C4.5 19.7954 4.81608 20.5585 5.37868 21.1211C5.94129 21.6837 6.70436 21.9998 7.5 21.9998H17.5C18.2957 21.9998 19.0587 21.6837 19.6213 21.1211C20.1839 20.5585 20.5 19.7954 20.5 18.9998V12.4138L20.793 12.7068C20.9816 12.8889 21.2342 12.9897 21.4964 12.9875C21.7586 12.9852 22.0094 12.88 22.1948 12.6946C22.3802 12.5092 22.4854 12.2584 22.4877 11.9962C22.49 11.734 22.3892 11.4814 22.207 11.2928L13.207 2.29279Z" fill="black"/>
</svg>
