<svg width="25" height="24" viewBox="0 0 25 24" fill="none" xmlns="http://www.w3.org/2000/svg">
<path d="M20.2499 9.99995C20.2499 9.80104 20.1709 9.61027 20.0302 9.46962C19.8896 9.32897 19.6988 9.24995 19.4999 9.24995C19.301 9.24995 19.1102 9.32897 18.9696 9.46962C18.8289 9.61027 18.7499 9.80104 18.7499 9.99995H20.2499ZM6.24991 9.99995C6.24991 9.80104 6.17089 9.61027 6.03024 9.46962C5.88959 9.32897 5.69882 9.24995 5.49991 9.24995C5.301 9.24995 5.11023 9.32897 4.96958 9.46962C4.82893 9.61027 4.74991 9.80104 4.74991 9.99995H6.24991ZM20.9699 12.53C21.0386 12.6036 21.1214 12.6627 21.2134 12.7037C21.3054 12.7447 21.4047 12.7668 21.5054 12.7685C21.6061 12.7703 21.7061 12.7518 21.7995 12.7141C21.8929 12.6764 21.9777 12.6202 22.0489 12.549C22.1202 12.4778 22.1763 12.3929 22.214 12.2995C22.2518 12.2062 22.2703 12.1061 22.2685 12.0054C22.2667 11.9047 22.2447 11.8054 22.2037 11.7134C22.1627 11.6214 22.1036 11.5386 22.0299 11.47L20.9699 12.53ZM12.4999 2.99995L13.0299 2.46995C12.8893 2.3295 12.6987 2.25061 12.4999 2.25061C12.3012 2.25061 12.1105 2.3295 11.9699 2.46995L12.4999 2.99995ZM2.96991 11.47C2.89622 11.5386 2.83712 11.6214 2.79613 11.7134C2.75514 11.8054 2.73309 11.9047 2.73132 12.0054C2.72954 12.1061 2.74807 12.2062 2.78579 12.2995C2.82351 12.3929 2.87965 12.4778 2.95087 12.549C3.02209 12.6202 3.10692 12.6764 3.20031 12.7141C3.2937 12.7518 3.39373 12.7703 3.49443 12.7685C3.59513 12.7668 3.69445 12.7447 3.78645 12.7037C3.87845 12.6627 3.96125 12.6036 4.02991 12.53L2.96991 11.47ZM7.49991 21.75H17.4999V20.25H7.49991V21.75ZM20.2499 19V9.99995H18.7499V19H20.2499ZM6.24991 19V9.99995H4.74991V19H6.24991ZM22.0299 11.47L13.0299 2.46995L11.9699 3.52995L20.9699 12.53L22.0299 11.47ZM11.9699 2.46995L2.96991 11.47L4.02991 12.53L13.0299 3.52995L11.9699 2.46995ZM17.4999 21.75C18.2293 21.75 18.9287 21.4602 19.4445 20.9445C19.9602 20.4288 20.2499 19.7293 20.2499 19H18.7499C18.7499 19.69 18.1899 20.25 17.4999 20.25V21.75ZM7.49991 20.25C6.80991 20.25 6.24991 19.69 6.24991 19H4.74991C4.74991 19.7293 5.03964 20.4288 5.55537 20.9445C6.07109 21.4602 6.77056 21.75 7.49991 21.75V20.25Z" fill="white"/>
</svg>
