<svg width="24" height="24" viewBox="0 0 24 24" fill="none" xmlns="http://www.w3.org/2000/svg">
<path d="M7 13.5C7.92826 13.5 8.81823 13.869 9.47461 14.5254C10.131 15.1818 10.5 16.0717 10.5 17C10.5 17.9283 10.131 18.8182 9.47461 19.4746C8.81823 20.131 7.92826 20.5 7 20.5C6.07174 20.5 5.18177 20.131 4.52539 19.4746C3.86901 18.8182 3.5 17.9283 3.5 17C3.5 16.0717 3.86901 15.1818 4.52539 14.5254C5.18177 13.869 6.07174 13.5 7 13.5ZM14 13.5H20C20.1326 13.5 20.2597 13.5527 20.3535 13.6465C20.4473 13.7403 20.5 13.8674 20.5 14V19C20.5 19.3978 20.3419 19.7792 20.0605 20.0605C19.7792 20.3419 19.3978 20.5 19 20.5H15C14.6022 20.5 14.2208 20.3419 13.9395 20.0605C13.6581 19.7792 13.5 19.3978 13.5 19V14C13.5 13.8674 13.5527 13.7403 13.6465 13.6465C13.7403 13.5527 13.8674 13.5 14 13.5ZM4 3.5H10C10.1326 3.5 10.2597 3.55272 10.3535 3.64648C10.4473 3.74025 10.5 3.86739 10.5 4V9C10.5 9.39782 10.3419 9.77924 10.0605 10.0605C9.77924 10.3419 9.39782 10.5 9 10.5H5C4.60218 10.5 4.22076 10.3419 3.93945 10.0605C3.65815 9.77924 3.5 9.39782 3.5 9V4C3.5 3.86739 3.55272 3.74025 3.64648 3.64648C3.74025 3.55272 3.86739 3.5 4 3.5ZM17 3.5C17.9283 3.5 18.8182 3.86901 19.4746 4.52539C20.131 5.18177 20.5 6.07174 20.5 7C20.5 7.92826 20.131 8.81823 19.4746 9.47461C18.8182 10.131 17.9283 10.5 17 10.5C16.0717 10.5 15.1818 10.131 14.5254 9.47461C13.869 8.81823 13.5 7.92826 13.5 7C13.5 6.07174 13.869 5.18177 14.5254 4.52539C15.1818 3.86901 16.0717 3.5 17 3.5Z" fill="#9990FF" stroke="#9990FF"/>
</svg>
