<svg width="25" height="24" viewBox="0 0 25 24" fill="none" xmlns="http://www.w3.org/2000/svg">
<path d="M17.5 10C19.1569 10 20.5 8.65685 20.5 7C20.5 5.34315 19.1569 4 17.5 4C15.8431 4 14.5 5.34315 14.5 7C14.5 8.65685 15.8431 10 17.5 10Z" stroke="#979C9E" stroke-width="1.5" stroke-linecap="round" stroke-linejoin="round"/>
<path d="M7.5 20C9.15685 20 10.5 18.6569 10.5 17C10.5 15.3431 9.15685 14 7.5 14C5.84315 14 4.5 15.3431 4.5 17C4.5 18.6569 5.84315 20 7.5 20Z" stroke="#979C9E" stroke-width="1.5" stroke-linecap="round" stroke-linejoin="round"/>
<path d="M14.5 14H20.5V19C20.5 19.2652 20.3946 19.5196 20.2071 19.7071C20.0196 19.8946 19.7652 20 19.5 20H15.5C15.2348 20 14.9804 19.8946 14.7929 19.7071C14.6054 19.5196 14.5 19.2652 14.5 19V14ZM4.5 4H10.5V9C10.5 9.26522 10.3946 9.51957 10.2071 9.70711C10.0196 9.89464 9.76522 10 9.5 10H5.5C5.23478 10 4.98043 9.89464 4.79289 9.70711C4.60536 9.51957 4.5 9.26522 4.5 9V4Z" stroke="#979C9E" stroke-width="1.5" stroke-linecap="round" stroke-linejoin="round"/>
</svg>
