<svg width="25" height="24" viewBox="0 0 25 24" fill="none" xmlns="http://www.w3.org/2000/svg">
<path d="M12.5 6C13.443 6 13.914 6 14.207 6.293C14.5 6.586 14.5 7.057 14.5 8V16C14.5 16.943 14.5 17.414 14.207 17.707C13.914 18 13.443 18 12.5 18M12.5 6C11.557 6 11.086 6 10.793 6.293C10.5 6.586 10.5 7.057 10.5 8V16C10.5 16.943 10.5 17.414 10.793 17.707C11.086 18 11.557 18 12.5 18M12.5 6V3M12.5 18V21M19.5 5C20.443 5 20.914 5 21.207 5.293C21.5 5.586 21.5 6.057 21.5 7V9C21.5 9.943 21.5 10.414 21.207 10.707C20.914 11 20.443 11 19.5 11M19.5 5C18.557 5 18.086 5 17.793 5.293C17.5 5.586 17.5 6.057 17.5 7V9C17.5 9.943 17.5 10.414 17.793 10.707C18.086 11 18.557 11 19.5 11M19.5 5V3M19.5 11V13M5.5 10C6.443 10 6.914 10 7.207 10.293C7.5 10.586 7.5 11.057 7.5 12V14C7.5 14.943 7.5 15.414 7.207 15.707C6.914 16 6.443 16 5.5 16M5.5 10C4.557 10 4.086 10 3.793 10.293C3.5 10.586 3.5 11.057 3.5 12V14C3.5 14.943 3.5 15.414 3.793 15.707C4.086 16 4.557 16 5.5 16M5.5 10V8M5.5 16V18" stroke="black" stroke-width="1.5" stroke-linecap="round" stroke-linejoin="round"/>
</svg>
