<svg width="25" height="24" viewBox="0 0 25 24" fill="none" xmlns="http://www.w3.org/2000/svg">
  <path fill-rule="evenodd" clip-rule="evenodd" d="M18.5 4V7H21.5C21.7652 7 22.0196 7.10536 22.2071 7.29289C22.3946 7.48043 22.5 7.73478 22.5 8V18C22.5 18.7956 22.1839 19.5587 21.6213 20.1213C21.0587 20.6839 20.2956 21 19.5 21H5.5C4.70435 21 3.94129 20.6839 3.37868 20.1213C2.81607 19.5587 2.5 18.7956 2.5 18V4C2.5 3.73478 2.60536 3.48043 2.79289 3.29289C2.98043 3.10536 3.23478 3 3.5 3H17.5C17.7652 3 18.0196 3.10536 18.2071 3.29289C18.3946 3.48043 18.5 3.73478 18.5 4ZM20.5 18C20.5 18.2652 20.3946 18.5196 20.2071 18.7071C20.0196 18.8946 19.7652 19 19.5 19C19.2348 19 18.9804 18.8946 18.7929 18.7071C18.6054 18.5196 18.5 18.2652 18.5 18V9H20.5V18ZM6.5 8C6.5 7.73478 6.60536 7.48043 6.79289 7.29289C6.98043 7.10536 7.23478 7 7.5 7H13.5C13.7652 7 14.0196 7.10536 14.2071 7.29289C14.3946 7.48043 14.5 7.73478 14.5 8C14.5 8.26522 14.3946 8.51957 14.2071 8.70711C14.0196 8.89464 13.7652 9 13.5 9H7.5C7.23478 9 6.98043 8.89464 6.79289 8.70711C6.60536 8.51957 6.5 8.26522 6.5 8ZM8.5 12C8.5 11.7348 8.60536 11.4804 8.79289 11.2929C8.98043 11.1054 9.23478 11 9.5 11H13.5C13.7652 11 14.0196 11.1054 14.2071 11.2929C14.3946 11.4804 14.5 11.7348 14.5 12C14.5 12.2652 14.3946 12.5196 14.2071 12.7071C14.0196 12.8946 13.7652 13 13.5 13H9.5C9.23478 13 8.98043 12.8946 8.79289 12.7071C8.60536 12.5196 8.5 12.2652 8.5 12Z" fill="white"/>
</svg>
