<svg width="24" height="24" viewBox="0 0 24 24" fill="none" xmlns="http://www.w3.org/2000/svg">
<path d="M12 2.5C13.933 2.5 15.5 4.067 15.5 6C15.5 7.933 13.933 9.5 12 9.5C10.067 9.5 8.5 7.933 8.5 6C8.5 4.067 10.067 2.5 12 2.5Z" fill="#9990FF" stroke="#9990FF"/>
<path d="M12 13.5C14.1392 13.5 16.0512 13.9891 17.4111 14.7539C18.7867 15.5277 19.5 16.5184 19.5 17.5C19.5 18.7858 19.4731 19.6515 18.6846 20.2939C18.2709 20.6308 17.6072 20.9373 16.5254 21.1562C15.4458 21.3748 13.9826 21.5 12 21.5C10.0174 21.5 8.5542 21.3748 7.47461 21.1562C6.39277 20.9373 5.72912 20.6308 5.31543 20.2939C4.52686 19.6515 4.5 18.7858 4.5 17.5C4.5 16.5184 5.21325 15.5277 6.58887 14.7539C7.94876 13.9891 9.86082 13.5 12 13.5Z" fill="#9990FF" stroke="#9990FF"/>
</svg>
