<svg width="24" height="24" viewBox="0 0 24 24" fill="none" xmlns="http://www.w3.org/2000/svg">
<path d="M12 2.5C14.1352 2.5 15.6861 2.50125 16.8701 2.66211C18.0391 2.82093 18.7754 3.12708 19.3262 3.68359C19.8777 4.24095 20.1823 4.98824 20.3398 6.17285C20.4991 7.37111 20.5 8.94014 20.5 11.0977V16.0908C20.5 17.6506 20.4993 18.7797 20.4111 19.6055C20.3215 20.4443 20.1515 20.8376 19.9277 21.0439L19.9268 21.0449C19.6544 21.2962 19.3112 21.4532 18.9463 21.4951C18.6488 21.5292 18.2469 21.4022 17.5635 20.918C16.8913 20.4417 16.0509 19.6991 14.8896 18.6719L14.8887 18.6709C14.3862 18.2271 13.984 17.8711 13.6328 17.6143C13.2751 17.3527 12.9327 17.165 12.5391 17.0859H12.54C12.1837 17.0132 11.8163 17.0132 11.46 17.0859C11.0663 17.1651 10.7247 17.3528 10.3672 17.6143C10.0157 17.8713 9.6127 18.2277 9.11035 18.6719C7.94899 19.6992 7.10873 20.4418 6.43652 20.918C5.75335 21.4019 5.35193 21.5284 5.05469 21.4941H5.05371C4.68758 21.4519 4.34418 21.2948 4.07324 21.0449L4.07227 21.0439C3.84848 20.8376 3.67848 20.4449 3.58887 19.6064C3.50064 18.7808 3.5 17.6513 3.5 16.0908V11.0967C3.5 8.93936 3.50082 7.37065 3.66016 6.17285C3.81767 4.98901 4.1222 4.24248 4.67383 3.68457C5.22465 3.12755 5.96093 2.82105 7.12988 2.66211C8.31387 2.50113 9.86472 2.5 12 2.5ZM9 4.75C8.66848 4.75 8.35063 4.88179 8.11621 5.11621C7.88179 5.35063 7.75 5.66848 7.75 6C7.75 6.33152 7.88179 6.64937 8.11621 6.88379C8.35063 7.11821 8.66848 7.25 9 7.25H15C15.3315 7.25 15.6494 7.11821 15.8838 6.88379C16.1182 6.64937 16.25 6.33152 16.25 6C16.25 5.66848 16.1182 5.35063 15.8838 5.11621C15.6494 4.88179 15.3315 4.75 15 4.75H9Z" fill="#9990FF" stroke="#9990FF"/>
</svg>
