<svg width="24" height="24" viewBox="0 0 24 24" fill="none" xmlns="http://www.w3.org/2000/svg">
  <path d="M11.5625 12.125C11.8732 12.125 12.125 11.8732 12.125 11.5625C12.125 11.2518 11.8732 11 11.5625 11C11.2518 11 11 11.2518 11 11.5625C11 11.8732 11.2518 12.125 11.5625 12.125Z" fill="#FFFFFF"/>
  <path d="M18.5625 12.125C18.8732 12.125 19.125 11.8732 19.125 11.5625C19.125 11.2518 18.8732 11 18.5625 11C18.2518 11 18 11.2518 18 11.5625C18 11.8732 18.2518 12.125 18.5625 12.125Z" fill="#FFFFFF"/>
  <path d="M4.5625 12.125C4.87316 12.125 5.125 11.8732 5.125 11.5625C5.125 11.2518 4.87316 11 4.5625 11C4.25184 11 4 11.2518 4 11.5625C4 11.8732 4.25184 12.125 4.5625 12.125Z" fill="#FFFFFF"/>
  <path d="M11.5625 12.125C11.8732 12.125 12.125 11.8732 12.125 11.5625C12.125 11.2518 11.8732 11 11.5625 11C11.2518 11 11 11.2518 11 11.5625C11 11.8732 11.2518 12.125 11.5625 12.125Z" stroke="#FFFFFF" stroke-width="1.5" stroke-linecap="round" stroke-linejoin="round"/>
  <path d="M18.5625 12.125C18.8732 12.125 19.125 11.8732 19.125 11.5625C19.125 11.2518 18.8732 11 18.5625 11C18.2518 11 18 11.2518 18 11.5625C18 11.8732 18.2518 12.125 18.5625 12.125Z" stroke="#FFFFFF" stroke-width="1.5" stroke-linecap="round" stroke-linejoin="round"/>
  <path d="M4.5625 12.125C4.87316 12.125 5.125 11.8732 5.125 11.5625C5.125 11.2518 4.87316 11 4.5625 11C4.25184 11 4 11.2518 4 11.5625C4 11.8732 4.25184 12.125 4.5625 12.125Z" stroke="#FFFFFF" stroke-width="1.5" stroke-linecap="round" stroke-linejoin="round"/>
</svg>
