<svg width="18" height="20" viewBox="0 0 18 20" fill="none" xmlns="http://www.w3.org/2000/svg">
  <path fill-rule="evenodd" clip-rule="evenodd" d="M18 9.098V14.091C18 17.187 18 18.736 17.266 19.412C16.916 19.735 16.474 19.938 16.003 19.992C15.016 20.105 13.863 19.085 11.558 17.046C10.538 16.145 10.029 15.694 9.44 15.576C9.14966 15.5167 8.85034 15.5167 8.56 15.576C7.97 15.694 7.461 16.145 6.442 17.046C4.137 19.085 2.984 20.105 1.997 19.991C1.52527 19.9367 1.08299 19.734 0.734 19.412C-5.96046e-08 18.736 0 17.188 0 14.091V9.097C0 4.81 -1.19209e-07 2.666 1.318 1.333C2.636 0 4.758 0 9 0C13.242 0 15.364 0 16.682 1.332C18 2.664 18 4.81 18 9.098ZM5.25 4C5.25 3.80109 5.32902 3.61032 5.46967 3.46967C5.61032 3.32902 5.80109 3.25 6 3.25H12C12.1989 3.25 12.3897 3.32902 12.5303 3.46967C12.671 3.61032 12.75 3.80109 12.75 4C12.75 4.19891 12.671 4.38968 12.5303 4.53033C12.3897 4.67098 12.1989 4.75 12 4.75H6C5.80109 4.75 5.61032 4.67098 5.46967 4.53033C5.32902 4.38968 5.25 4.19891 5.25 4Z" fill="white"/>
</svg>
