<svg width="24" height="25" viewBox="0 0 24 25" fill="none" xmlns="http://www.w3.org/2000/svg">
<path d="M14 10.6994L11 13.6994M20.288 3.73044C20.3829 3.69769 20.4851 3.6923 20.5829 3.71489C20.6807 3.73747 20.7702 3.78712 20.8411 3.85815C20.912 3.92918 20.9615 4.01873 20.984 4.11658C21.0064 4.21442 21.0009 4.3166 20.968 4.41144L15.044 21.3414C15.0086 21.4426 14.9435 21.5309 14.8573 21.5946C14.7711 21.6584 14.6677 21.6948 14.5606 21.6991C14.4534 21.7035 14.3475 21.6755 14.2564 21.6188C14.1654 21.5622 14.0935 21.4795 14.05 21.3814L10.831 14.1394C10.7768 14.019 10.6804 13.9226 10.56 13.8684L3.318 10.6484C3.2203 10.6048 3.13792 10.5329 3.0815 10.442C3.02509 10.351 2.99724 10.2453 3.00155 10.1384C3.00585 10.0315 3.04212 9.9283 3.10566 9.84221C3.16921 9.75612 3.2571 9.69106 3.358 9.65544L20.288 3.73044Z" stroke="#8067FF" stroke-width="1.5" stroke-linecap="round" stroke-linejoin="round"/>
</svg>
