<svg width="20" height="20" viewBox="0 0 20 20" fill="none" xmlns="http://www.w3.org/2000/svg">
  <path d="M12 8.00022L8.99998 11.0002M18.288 1.03122C18.3829 0.998474 18.4851 0.993085 18.5829 1.01567C18.6807 1.03825 18.7702 1.0879 18.8411 1.15893C18.912 1.22996 18.9615 1.31952 18.984 1.41736C19.0064 1.5152 19.0009 1.61738 18.968 1.71222L13.044 18.6422C13.0085 18.7434 12.9435 18.8316 12.8573 18.8954C12.7711 18.9592 12.6677 18.9956 12.5606 18.9999C12.4534 19.0042 12.3475 18.9763 12.2564 18.9196C12.1654 18.863 12.0935 18.7802 12.05 18.6822L8.83099 11.4402C8.77682 11.3198 8.68041 11.2234 8.55999 11.1692L1.31799 7.94922C1.22028 7.9056 1.1379 7.83368 1.08149 7.74275C1.02508 7.65183 0.997226 7.54608 1.00153 7.43917C1.00584 7.33225 1.04211 7.22909 1.10565 7.14299C1.16919 7.0569 1.25709 6.99184 1.35798 6.95622L18.288 1.03122Z" 
    stroke="black" stroke-width="2" stroke-linecap="round" stroke-linejoin="round"/>
</svg>
