<svg width="20" height="20" viewBox="0 0 20 20" fill="none" xmlns="http://www.w3.org/2000/svg">
<path fill-rule="evenodd" clip-rule="evenodd" d="M18.3333 9.99984C18.3333 14.6023 14.6025 18.3332 9.99997 18.3332C8.66664 18.3332 7.40664 18.0198 6.28997 17.4632C5.99508 17.3104 5.65445 17.271 5.33247 17.3523L3.47747 17.849C3.29386 17.898 3.1006 17.8978 2.91708 17.8485C2.73355 17.7992 2.56623 17.7025 2.4319 17.5681C2.29757 17.4337 2.20096 17.2663 2.15177 17.0827C2.10257 16.8992 2.10253 16.7059 2.15164 16.5223L2.64747 14.6673C2.72835 14.3455 2.68863 14.0052 2.5358 13.7107C1.96216 12.5579 1.6646 11.2875 1.66664 9.99984C1.66664 5.39734 5.39747 1.6665 9.99997 1.6665C14.6025 1.6665 18.3333 5.39734 18.3333 9.99984ZM6.24997 9.2565C6.24997 10.3973 7.34914 11.594 8.35747 12.4515C9.0433 13.0348 9.38664 13.3273 9.99997 13.3273C10.6133 13.3273 10.9566 13.0357 11.6425 12.4515C12.6508 11.5932 13.75 10.3973 13.75 9.2565C13.75 7.02567 11.6875 6.19317 9.99997 7.9165C8.31247 6.19317 6.24997 7.02567 6.24997 9.2565Z" fill="#64748B"/>
</svg>
