<svg width="20" height="21" viewBox="0 0 20 21" fill="none" xmlns="http://www.w3.org/2000/svg">
<g clip-path="url(#clip0_218_790)">
<path fill-rule="evenodd" clip-rule="evenodd" d="M18.2812 6.75938C17.9252 6.35594 17.4131 6.12489 16.875 6.125H12.5V4.875C12.5 3.14911 11.1009 1.75 9.375 1.75C9.13818 1.74983 8.9216 1.88353 8.81563 2.09531L5.86406 8H2.5C1.80964 8 1.25 8.55964 1.25 9.25V16.125C1.25 16.8154 1.80964 17.375 2.5 17.375H15.9375C16.8827 17.3753 17.6803 16.6721 17.7984 15.7344L18.7359 8.23438C18.8032 7.70023 18.6375 7.16297 18.2812 6.75938ZM2.5 9.25H5.625V16.125H2.5V9.25ZM17.4953 8.07812L16.5578 15.5781C16.5184 15.8907 16.2526 16.1251 15.9375 16.125H6.875V8.77266L9.74297 3.03594C10.6195 3.21136 11.2502 3.98112 11.25 4.875V6.75C11.25 7.09518 11.5298 7.375 11.875 7.375H16.875C17.0544 7.37494 17.2252 7.45198 17.3439 7.58652C17.4626 7.72106 17.5177 7.90012 17.4953 8.07812Z" fill="#4A709C"/>
</g>
<defs>
<clipPath id="clip0_218_790">
<rect width="20" height="20" fill="white" transform="translate(0 0.5)"/>
</clipPath>
</defs>
</svg>
