<svg width="13" height="17" viewBox="0 0 13 17" fill="none" xmlns="http://www.w3.org/2000/svg">
<path d="M11.8917 12.0542L12.4792 8.65417C12.5136 8.4549 12.5042 8.25049 12.4514 8.05526C12.3986 7.86002 12.3038 7.67868 12.1737 7.5239C12.0435 7.36912 11.8811 7.24466 11.6978 7.1592C11.5145 7.07375 11.3147 7.02937 11.1125 7.02917H6.795C6.69424 7.02919 6.59468 7.00728 6.50324 6.96495C6.41181 6.92262 6.33068 6.8609 6.2655 6.78406C6.20031 6.70722 6.15264 6.61711 6.12579 6.52C6.09894 6.42288 6.09355 6.32108 6.11 6.22167L6.6625 2.85084C6.75174 2.30351 6.7262 1.7436 6.5875 1.20667C6.52762 0.985011 6.41286 0.782009 6.25382 0.616409C6.09477 0.450809 5.89656 0.327949 5.6775 0.259172L5.55667 0.220005C5.28343 0.132589 4.98712 0.15286 4.72833 0.276672C4.445 0.413339 4.23833 0.662505 4.16167 0.958339L3.765 2.48667C3.63893 2.9731 3.45542 3.44279 3.21833 3.88584C2.8725 4.53334 2.3375 5.05251 1.78083 5.53167L0.581667 6.56501C0.415308 6.70877 0.285378 6.88989 0.202524 7.09355C0.11967 7.29721 0.0862491 7.51761 0.105 7.73667L0.781667 15.5642C0.811491 15.9103 0.970035 16.2328 1.22599 16.4677C1.48195 16.7027 1.81671 16.8332 2.16417 16.8333H6.0375C8.93917 16.8333 11.415 14.8117 11.8917 12.0542Z" fill="#72777A"/>
</svg>
