<svg width="22" height="20" viewBox="0 0 22 20" fill="none" xmlns="http://www.w3.org/2000/svg">
  <path d="M11 3.49999L10.46 4.01999C10.53 4.09257 10.6138 4.15031 10.7066 4.18974C10.7994 4.22918 10.8992 4.24951 11 4.24951C11.1008 4.24951 11.2006 4.22918 11.2934 4.18974C11.3862 4.15031 11.47 4.09257 11.54 4.01999L11 3.49999ZM8.426 16.322C6.91 15.127 5.253 13.96 3.938 12.48C2.65 11.028 1.75 9.33499 1.75 7.13699H0.25C0.25 9.80299 1.36 11.837 2.817 13.476C4.247 15.086 6.071 16.376 7.497 17.5L8.426 16.322ZM1.75 7.13699C1.75 4.98699 2.965 3.18299 4.624 2.42399C6.236 1.68699 8.402 1.88199 10.46 4.01999L11.54 2.98099C9.1 0.443986 6.264 0.0249861 4 1.05999C1.786 2.07299 0.25 4.42499 0.25 7.13699H1.75ZM7.497 17.5C8.01 17.904 8.56 18.334 9.117 18.66C9.674 18.986 10.31 19.25 11 19.25V17.75C10.69 17.75 10.326 17.63 9.874 17.365C9.421 17.101 8.952 16.737 8.426 16.322L7.497 17.5ZM14.503 17.5C15.929 16.375 17.753 15.087 19.183 13.476C20.64 11.836 21.75 9.80299 21.75 7.13699H20.25C20.25 9.33499 19.35 11.028 18.062 12.48C16.747 13.96 15.09 15.127 13.574 16.322L14.503 17.5ZM21.75 7.13699C21.75 4.42499 20.215 2.07299 18 1.05999C15.736 0.0249861 12.902 0.443986 10.46 2.97999L11.54 4.01999C13.598 1.88299 15.764 1.68699 17.376 2.42399C19.035 3.18299 20.25 4.98599 20.25 7.13699H21.75ZM13.574 16.322C13.048 16.737 12.579 17.101 12.126 17.365C11.673 17.629 11.31 17.75 11 17.75V19.25C11.69 19.25 12.326 18.985 12.883 18.66C13.441 18.334 13.99 17.904 14.503 17.5L13.574 16.322Z" fill="white"/>
</svg>
