<svg width="18" height="19" viewBox="0 0 18 19" fill="none" xmlns="http://www.w3.org/2000/svg">
<path d="M1.5 8.02843L2.1225 7.97509C2.10815 7.81502 2.0327 7.66663 1.9118 7.56074C1.79091 7.45484 1.63387 7.39959 1.4733 7.40646C1.31273 7.41332 1.16098 7.48177 1.04957 7.5976C0.938149 7.71342 0.875632 7.86771 0.875 8.02843H1.5ZM15.8633 9.54759L15.275 12.9476L16.5075 13.1609L17.095 9.76093L15.8633 9.54759ZM10.0375 17.2084H6.16333V18.4584H10.0375V17.2084ZM5.40417 16.5109L4.7275 8.68343L3.48167 8.79093L4.15917 16.6184L5.40417 16.5109ZM15.275 12.9476C14.8525 15.3893 12.6508 17.2084 10.0375 17.2084V18.4584C13.2258 18.4584 15.9758 16.2343 16.5075 13.1609L15.275 12.9476ZM10.0458 3.75009L9.49333 7.12093L10.7267 7.32259L11.2792 3.95259L10.0458 3.75009ZM4.99 8.03843L6.18917 7.00509L5.3725 6.05843L4.175 7.09176L4.99 8.03843ZM8.37 3.64343L8.76667 2.11509L7.55667 1.80176L7.16 3.32926L8.37 3.64343ZM9.365 1.81509L9.48583 1.85426L9.86833 0.66426L9.7475 0.625093L9.365 1.81509ZM7.76917 5.18009C8.02932 4.69335 8.231 4.17754 8.37 3.64343L7.16 3.32926C7.04517 3.76783 6.87961 4.19153 6.66667 4.59176L7.76917 5.18009ZM9.48583 1.85426C9.60455 1.89064 9.71224 1.95625 9.79902 2.04506C9.8858 2.13388 9.94888 2.24306 9.9825 2.36259L11.1925 2.04926C11.1067 1.72534 10.9403 1.42843 10.7088 1.18624C10.4772 0.944044 10.1881 0.764465 9.86833 0.66426L9.48583 1.85426ZM8.76667 2.11509C8.78353 2.05519 8.8131 1.99962 8.85336 1.95217C8.89363 1.90471 8.94364 1.86649 9 1.84009L8.4575 0.71426C8.01417 0.927593 7.68083 1.32259 7.55667 1.80176L8.76667 2.11509ZM9 1.84009C9.11414 1.78595 9.24454 1.77702 9.365 1.81509L9.7475 0.625093C9.32189 0.489036 8.86035 0.520938 8.4575 0.71426L9 1.84009ZM10.795 8.65343H15.1117V7.40343H10.795V8.65343ZM2.9325 17.3384L2.1225 7.97509L0.8775 8.08259L1.68583 17.4459L2.9325 17.3384ZM2.125 17.4276V8.02843H0.875V17.4276H2.125ZM1.68583 17.4459C1.68329 17.4156 1.68791 17.3852 1.69778 17.3564C1.70765 17.3277 1.72339 17.3013 1.744 17.279C1.76461 17.2566 1.78964 17.2388 1.8175 17.2267C1.84536 17.2145 1.87544 17.2083 1.90583 17.2084V18.4584C2.51083 18.4584 2.98417 17.9401 2.9325 17.3384L1.68583 17.4459ZM11.2792 3.95259C11.3839 3.31908 11.3544 2.67063 11.1925 2.04926L9.9825 2.36343C10.1007 2.81608 10.1223 3.28855 10.0458 3.75009L11.2792 3.95259ZM6.16333 17.2084C5.97251 17.2081 5.78873 17.1363 5.64821 17.0072C5.50769 16.8781 5.42062 16.701 5.40417 16.5109L4.15917 16.6184C4.20253 17.1202 4.4324 17.5876 4.80342 17.9282C5.17444 18.2688 5.65966 18.458 6.16333 18.4584V17.2084ZM6.18917 7.00509C6.75583 6.51676 7.36583 5.93593 7.77 5.18009L6.66667 4.59176C6.37833 5.13259 5.91917 5.58843 5.3725 6.05843L6.18917 7.00509ZM17.095 9.76093C17.1452 9.47175 17.1315 9.1751 17.055 8.89176C16.9784 8.60841 16.8409 8.34523 16.6519 8.12064C16.463 7.89605 16.2272 7.71548 15.9612 7.59159C15.6951 7.4677 15.4052 7.40348 15.1117 7.40343V8.65343C15.5842 8.65343 15.945 9.08009 15.8633 9.54759L17.095 9.76093ZM1.90583 17.2084C2.0275 17.2084 2.125 17.3068 2.125 17.4276H0.875C0.875 17.9959 1.33583 18.4584 1.90583 18.4584V17.2084ZM9.49333 7.12093C9.46227 7.30974 9.47265 7.50306 9.52376 7.68746C9.57488 7.87186 9.6655 8.04294 9.78933 8.18881C9.91317 8.33469 10.0673 8.45188 10.2409 8.53226C10.4146 8.61263 10.6036 8.65343 10.795 8.65343V7.40343C10.7848 7.40347 10.7748 7.40211 10.7656 7.39782C10.7563 7.39354 10.7482 7.38728 10.7416 7.37948C10.7351 7.37168 10.7304 7.36254 10.7278 7.35271C10.7252 7.34288 10.7248 7.33259 10.7267 7.32259L9.49333 7.12093ZM4.7275 8.68343C4.71734 8.56276 4.73507 8.4414 4.78084 8.32929C4.82661 8.21718 4.89829 8.1175 4.99 8.03843L4.17333 7.09093C3.93179 7.29937 3.74314 7.56216 3.6229 7.85768C3.50266 8.15321 3.45426 8.47305 3.48167 8.79093L4.7275 8.68343Z" fill="#72777A"/>
</svg>
