<svg width="20" height="21" viewBox="0 0 20 21" fill="none" xmlns="http://www.w3.org/2000/svg">
<path d="M2.5 11.9715L3.1225 12.0248C3.10815 12.1849 3.0327 12.3333 2.9118 12.4392C2.79091 12.5451 2.63387 12.6003 2.4733 12.5935C2.31273 12.5866 2.16098 12.5182 2.04957 12.4023C1.93815 12.2865 1.87563 12.1322 1.875 11.9715H2.5ZM16.8633 10.4523L16.275 7.05234L17.5075 6.839L18.095 10.239L16.8633 10.4523ZM11.0375 2.7915H7.16333V1.5415H11.0375V2.7915ZM6.40417 3.48984L5.7275 11.3165L4.48167 11.209L5.15917 3.3815L6.40417 3.48984ZM16.275 7.05234C15.8525 4.61067 13.6508 2.7915 11.0375 2.7915V1.5415C14.2258 1.5415 16.9758 3.76567 17.5075 6.839L16.275 7.05234ZM11.0458 16.2498L10.4933 12.879L11.7267 12.6773L12.2792 16.0473L11.0458 16.2498ZM5.99 11.9615L7.18917 12.9948L6.3725 13.9423L5.17333 12.909L5.99 11.9615ZM9.37 16.3565L9.76667 17.8848L8.55667 18.1982L8.16 16.6707L9.37 16.3565ZM10.365 18.1848L10.4858 18.1457L10.8683 19.3357L10.7475 19.3748L10.365 18.1848ZM8.76917 14.8198C9.02917 15.3065 9.23167 15.8223 9.37 16.3565L8.16 16.6707C8.04517 16.2321 7.87961 15.8084 7.66667 15.4082L8.76917 14.8198ZM10.4858 18.1457C10.6046 18.1093 10.7122 18.0437 10.799 17.9549C10.8858 17.8661 10.9489 17.7569 10.9825 17.6373L12.1925 17.9507C12.1067 18.2746 11.9403 18.5715 11.7088 18.8137C11.4772 19.0559 11.1881 19.2355 10.8683 19.3357L10.4858 18.1457ZM9.76667 17.8848C9.78302 17.945 9.81239 18.0008 9.85272 18.0483C9.89304 18.0958 9.94332 18.1339 10 18.1598L9.4575 19.2857C9.23722 19.1809 9.04247 19.0293 8.88688 18.8415C8.73128 18.6537 8.61858 18.4341 8.55667 18.1982L9.76667 17.8848ZM10 18.1598C10.1141 18.214 10.2445 18.2229 10.365 18.1848L10.7475 19.3748C10.3219 19.5109 9.86035 19.479 9.4575 19.2857L10 18.1598ZM11.795 11.3465H16.1117V12.5965H11.795V11.3465ZM3.9325 2.6615L3.1225 12.0248L1.8775 11.9173L2.68583 2.554L3.9325 2.6615ZM3.125 2.57234V11.9715H1.875V2.57234H3.125ZM2.68583 2.554C2.68329 2.58429 2.68791 2.61477 2.69778 2.64352C2.70765 2.67226 2.72339 2.69864 2.744 2.72097C2.76461 2.74331 2.78964 2.76111 2.8175 2.77325C2.84536 2.7854 2.87544 2.79161 2.90583 2.7915V1.5415C3.51083 1.5415 3.98417 2.05984 3.9325 2.6615L2.68583 2.554ZM12.2792 16.0473C12.3833 16.6807 12.3542 17.329 12.1925 17.9507L10.9825 17.6365C11.0992 17.184 11.1217 16.7115 11.0458 16.2498L12.2792 16.0473ZM7.16333 2.7915C6.97238 2.79185 6.78849 2.86376 6.64795 2.99304C6.50741 3.12232 6.42043 3.29957 6.40417 3.48984L5.15917 3.3815C5.20253 2.8797 5.4324 2.41238 5.80342 2.07175C6.17444 1.73112 6.65966 1.54193 7.16333 1.5415V2.7915ZM7.18917 12.9948C7.75583 13.4832 8.36583 14.064 8.77 14.8198L7.66667 15.409C7.37833 14.8682 6.91917 14.4123 6.3725 13.9423L7.18917 12.9948ZM18.095 10.239C18.1452 10.5282 18.1315 10.8248 18.055 11.1082C17.9784 11.3915 17.8409 11.6547 17.6519 11.8793C17.463 12.1039 17.2272 12.2844 16.9612 12.4083C16.6951 12.5322 16.4052 12.5965 16.1117 12.5965V11.3465C16.223 11.3464 16.3329 11.3221 16.4338 11.2751C16.5346 11.228 16.624 11.1595 16.6956 11.0744C16.7672 10.9892 16.8193 10.8894 16.8483 10.7819C16.8773 10.6745 16.8824 10.562 16.8633 10.4523L18.095 10.239ZM2.90583 2.7915C2.96396 2.7915 3.01971 2.76841 3.06081 2.72731C3.10191 2.68621 3.125 2.63046 3.125 2.57234H1.875C1.875 2.004 2.33583 1.5415 2.90583 1.5415V2.7915ZM10.4933 12.879C10.4623 12.6902 10.4726 12.4969 10.5238 12.3125C10.5749 12.1281 10.6655 11.957 10.7893 11.8111C10.9132 11.6652 11.0673 11.548 11.2409 11.4677C11.4146 11.3873 11.6036 11.3465 11.795 11.3465V12.5965C11.7533 12.5965 11.72 12.634 11.7267 12.6773L10.4933 12.879ZM5.7275 11.3165C5.71734 11.4372 5.73507 11.5585 5.78084 11.6706C5.82661 11.7828 5.89829 11.8824 5.99 11.9615L5.17333 12.909C4.93179 12.7006 4.74314 12.4378 4.6229 12.1422C4.50266 11.8467 4.45426 11.5269 4.48167 11.209L5.7275 11.3165Z" fill="#72777A"/>
</svg>
