<svg width="20" height="21" viewBox="0 0 20 21" fill="none" xmlns="http://www.w3.org/2000/svg">
<g clip-path="url(#clip0_218_797)">
<path fill-rule="evenodd" clip-rule="evenodd" d="M18.7359 12.7656L17.7984 5.26562C17.6803 4.32788 16.8827 3.62468 15.9375 3.625H2.5C1.80964 3.625 1.25 4.18464 1.25 4.875V11.75C1.25 12.4404 1.80964 13 2.5 13H5.86406L8.81563 18.9047C8.9216 19.1165 9.13818 19.2502 9.375 19.25C11.1009 19.25 12.5 17.8509 12.5 16.125V14.875H16.875C17.4132 14.8752 17.9256 14.6441 18.2817 14.2404C18.6378 13.8368 18.8032 13.2996 18.7359 12.7656ZM5.625 11.75H2.5V4.875H5.625V11.75ZM17.3438 13.4133C17.2259 13.5489 17.0547 13.6262 16.875 13.625H11.875C11.5298 13.625 11.25 13.9048 11.25 14.25V16.125C11.2502 17.0189 10.6195 17.7886 9.74297 17.9641L6.875 12.2273V4.875H15.9375C16.2526 4.87489 16.5184 5.10929 16.5578 5.42188L17.4953 12.9219C17.519 13.1 17.4636 13.2795 17.3438 13.4133Z" fill="#4A709C"/>
</g>
<defs>
<clipPath id="clip0_218_797">
<rect width="20" height="20" fill="white" transform="translate(0 0.5)"/>
</clipPath>
</defs>
</svg>
