<svg width="20" height="21" viewBox="0 0 20 21" fill="none" xmlns="http://www.w3.org/2000/svg">
<path d="M16.8917 7.57067L17.4792 10.9707C17.5136 11.1699 17.5041 11.3744 17.4514 11.5696C17.3986 11.7648 17.3038 11.9462 17.1737 12.1009C17.0435 12.2557 16.8811 12.3802 16.6978 12.4656C16.5145 12.5511 16.3147 12.5955 16.1125 12.5957H11.795C11.6942 12.5956 11.5947 12.6176 11.5032 12.6599C11.4118 12.7022 11.3307 12.7639 11.2655 12.8408C11.2003 12.9176 11.1526 13.0077 11.1258 13.1048C11.0989 13.202 11.0935 13.3038 11.11 13.4032L11.6625 16.774C11.7518 17.3216 11.7263 17.8818 11.5875 18.419C11.4717 18.8632 11.1292 19.2207 10.6775 19.3657L10.5567 19.4048C10.2833 19.4923 9.98582 19.4715 9.72832 19.3482C9.58987 19.2827 9.46741 19.1878 9.36952 19.0701C9.27163 18.9523 9.20069 18.8146 9.16165 18.6665L8.76499 17.1382C8.63891 16.6517 8.4554 16.1821 8.21832 15.739C7.87249 15.0915 7.33749 14.5723 6.78082 14.0932L5.58165 13.0598C5.41529 12.9161 5.28536 12.7349 5.20251 12.5313C5.11965 12.3276 5.08623 12.1072 5.10499 11.8882L5.78165 4.06067C5.81148 3.7145 5.97002 3.39209 6.22598 3.15711C6.48193 2.92214 6.81669 2.79168 7.16415 2.7915H11.0375C13.9392 2.7915 16.415 4.81317 16.8917 7.57067Z" fill="#72777A"/>
<path fill-rule="evenodd" clip-rule="evenodd" d="M2.47334 13.221C2.63439 13.2281 2.79193 13.1726 2.91305 13.0662C3.03418 12.9599 3.10952 12.8108 3.12334 12.6502L3.93167 3.28685C3.94536 3.14742 3.93049 3.00666 3.88796 2.87316C3.84542 2.73967 3.77612 2.61625 3.68429 2.51044C3.59246 2.40463 3.48002 2.31865 3.35384 2.25775C3.22766 2.19685 3.0904 2.16231 2.95042 2.15624C2.81045 2.15017 2.67071 2.1727 2.53973 2.22245C2.40876 2.2722 2.2893 2.34813 2.18865 2.4456C2.08801 2.54306 2.00829 2.66002 1.95436 2.78933C1.90043 2.91864 1.87343 3.05759 1.875 3.19769V12.5969C1.87486 12.7581 1.93703 12.9132 2.04854 13.0296C2.16004 13.1461 2.31224 13.2141 2.47334 13.221Z" fill="#72777A"/>
</svg>
