<svg width="20" height="20" viewBox="0 0 20 20" fill="none" xmlns="http://www.w3.org/2000/svg">
<path d="M9.29297 3.45919C9.68344 3.06894 10.3166 3.06894 10.707 3.45919L16.54 9.2922C16.5458 9.29801 16.551 9.30483 16.5566 9.31075C16.5694 9.32411 16.5818 9.33772 16.5938 9.35177C16.6014 9.36078 16.6089 9.3699 16.6162 9.37911C16.6496 9.42115 16.6797 9.46576 16.7061 9.5129C16.7117 9.52297 16.7174 9.53295 16.7227 9.54317C16.7932 9.68019 16.834 9.83552 16.834 10.0002C16.8339 10.2762 16.7209 10.5253 16.54 10.7063L10.707 16.5402C10.3165 16.9306 9.68345 16.9306 9.29297 16.5402C8.90271 16.1498 8.90268 15.5166 9.29297 15.1262L13.418 11.0002H4.16699C3.61479 11.0002 3.16712 10.5524 3.16699 10.0002C3.16699 9.44792 3.61471 9.0002 4.16699 9.0002H13.4199L9.29297 4.87325C8.90265 4.48271 8.90251 3.84964 9.29297 3.45919Z" fill="black"/>
</svg>
