<svg width="50" height="50" viewBox="0 0 50 50" fill="none" xmlns="http://www.w3.org/2000/svg">
<path d="M47 25.5208C47 23.8958 46.8542 22.3333 46.5833 20.8333H25V29.6979H37.3333C36.8021 32.5625 35.1875 34.9896 32.7604 36.6146V42.3646H40.1667C44.5 38.375 47 32.5 47 25.5208Z" fill="#4285F4"/>
<path d="M25 47.9167C31.1875 47.9167 36.375 45.8646 40.1666 42.3646L32.7604 36.6146C30.7083 37.9896 28.0833 38.8021 25 38.8021C19.0312 38.8021 13.9791 34.7709 12.1771 29.3542H4.52081V35.2917C8.29165 42.7813 16.0416 47.9167 25 47.9167Z" fill="#34A853"/>
<path d="M12.1771 29.3541C11.7187 27.9791 11.4583 26.5104 11.4583 25C11.4583 23.4896 11.7187 22.0208 12.1771 20.6458V14.7083H4.52081C2.91665 17.9018 2.0819 21.4263 2.08331 25C2.08331 28.6979 2.96873 32.1979 4.52081 35.2916L12.1771 29.3541Z" fill="#FBBC05"/>
<path d="M25 11.1979C28.3646 11.1979 31.3854 12.3541 33.7604 14.625L40.3333 8.05206C36.3646 4.35415 31.1771 2.08331 25 2.08331C16.0416 2.08331 8.29165 7.21873 4.52081 14.7083L12.1771 20.6458C13.9791 15.2291 19.0312 11.1979 25 11.1979Z" fill="#EA4335"/>
</svg>
