<svg width="125" height="200" viewBox="0 0 125 200" fill="none" xmlns="http://www.w3.org/2000/svg">
<path d="M55.626 37.3699L90.1212 0L125 37.3699H106.602V173.626C103.383 171.48 89.9296 169.41 83.6055 168.643V65.9243H74.0234V37.3699H55.626Z" fill="#6B4EFF"/>
<path d="M52.5596 97.7369V71.6738H79.7725V167.877C69.0406 166.344 61.5667 163.278 58.3088 160.978V97.7369H52.5596Z" fill="#6B4EFF"/>
<path d="M54.477 104.252V159.061C45.4315 156.761 28.7966 141.047 27.8391 133.956C26.8817 126.866 27.6473 104.252 27.6473 104.252H54.477Z" fill="#6B4EFF"/>
<path d="M0.144662 113.451C1.42067 94.3139 10.1985 77.0391 10.1985 77.0391C10.1985 77.0391 9.18828 94.5681 10.8798 105.593C12.1323 113.757 12.9547 118.444 16.0541 126.099C18.9212 133.181 22.914 139.81 25.8743 143.538C31.0486 150.054 38.1393 156.953 45.2299 161.169C50.8522 164.512 54.8338 166.535 61.2812 168.835C66.6167 170.738 71.6298 171.901 75.271 172.668C80.7287 173.817 88.8139 174.685 92.1319 175.159C100.181 176.309 104.804 178.417 106.313 182.441C107.463 185.507 107.08 191.947 102.672 195.473C97.1625 199.88 90.0264 200.2 81.872 199.88C72.0984 199.497 56.0294 196.37 42.1139 188.382C28.1985 180.394 17.6546 169.026 12.0264 160.211C9.12184 155.662 5.79354 149.876 3.40258 141.622C0.719614 133.956 -0.430358 122.075 0.144662 113.451Z" fill="#6B4EFF"/>
</svg>
