<svg width="20" height="24" viewBox="0 0 20 24" fill="none" xmlns="http://www.w3.org/2000/svg">
<g clip-path="url(#clip0_129_500)">
<path d="M19.3735 8.18824C17.7349 9.17647 16.7229 10.8706 16.7229 12.7529C16.7229 14.8706 18.0241 16.8 20 17.6C19.6145 18.8235 19.0361 19.9529 18.3133 20.9882C17.253 22.4471 16.1446 23.9529 14.506 23.9529C12.8675 23.9529 12.3855 23.0118 10.4578 23.0118C8.57831 23.0118 7.90361 24 6.36145 24C4.81928 24 3.75904 22.6353 2.55422 20.9412C0.963856 18.5882 0.0481928 15.8588 0 12.9882C0 8.32941 3.08434 5.83529 6.16867 5.83529C7.80723 5.83529 9.15663 6.87059 10.1687 6.87059C11.1325 6.87059 12.6747 5.78824 14.506 5.78824C16.4337 5.74118 18.2651 6.63529 19.3735 8.18824ZM13.6386 3.81176C14.4578 2.87059 14.8916 1.69412 14.9398 0.470588C14.9398 0.329412 14.9398 0.141176 14.8916 0C13.494 0.141176 12.1928 0.8 11.2771 1.83529C10.4578 2.72941 9.9759 3.85882 9.92771 5.08235C9.92771 5.22353 9.92771 5.36471 9.9759 5.50588C10.0723 5.50588 10.2169 5.55294 10.3133 5.55294C11.6145 5.45882 12.8193 4.8 13.6386 3.81176Z" fill="black"/>
</g>
<defs>
<clipPath id="clip0_129_500">
<rect width="20" height="24" fill="white"/>
</clipPath>
</defs>
</svg>
