<svg width="14" height="14" viewBox="0 0 14 14" fill="none" xmlns="http://www.w3.org/2000/svg">
<path d="M1.91041 8.92283C1.41457 8.27883 1.16666 7.95625 1.16666 7.00016C1.16666 6.0435 1.41457 5.72208 1.91041 5.0775C2.90032 3.79183 4.56049 2.3335 6.99999 2.3335C9.43949 2.3335 11.0997 3.79183 12.0896 5.0775C12.5854 5.72266 12.8333 6.04408 12.8333 7.00016C12.8333 7.95683 12.5854 8.27825 12.0896 8.92283C11.0997 10.2085 9.43949 11.6668 6.99999 11.6668C4.56049 11.6668 2.90032 10.2085 1.91041 8.92283Z" stroke="#6C7072"/>
<path d="M8.75 7C8.75 7.46413 8.56563 7.90925 8.23744 8.23744C7.90925 8.56563 7.46413 8.75 7 8.75C6.53587 8.75 6.09075 8.56563 5.76256 8.23744C5.43437 7.90925 5.25 7.46413 5.25 7C5.25 6.53587 5.43437 6.09075 5.76256 5.76256C6.09075 5.43437 6.53587 5.25 7 5.25C7.46413 5.25 7.90925 5.43437 8.23744 5.76256C8.56563 6.09075 8.75 6.53587 8.75 7Z" stroke="#6C7072"/>
</svg>
