<svg width="14" height="14" viewBox="0 0 14 14" fill="none" xmlns="http://www.w3.org/2000/svg">
<g clip-path="url(#clip0_930_4795)">
<path d="M6.99999 12.8332C10.2217 12.8332 12.8333 10.2216 12.8333 6.99984C12.8333 3.77809 10.2217 1.1665 6.99999 1.1665C3.77824 1.1665 1.16666 3.77809 1.16666 6.99984C1.16666 7.93317 1.38599 8.81517 1.77507 9.59742C1.87891 9.80509 1.91332 10.0425 1.85324 10.2671L1.50616 11.5656C1.47178 11.6941 1.47181 11.8294 1.50625 11.9579C1.54068 12.0864 1.60831 12.2035 1.70234 12.2976C1.79637 12.3917 1.9135 12.4594 2.04196 12.4939C2.17043 12.5284 2.30571 12.5285 2.43424 12.4943L3.73274 12.1466C3.95813 12.0896 4.19657 12.1172 4.40299 12.2242C5.20971 12.6258 6.09881 12.8343 6.99999 12.8332Z" stroke="#6C7072"/>
<path d="M7 5.54166L6.68733 5.84733C6.72807 5.88895 6.77672 5.92202 6.83041 5.9446C6.8841 5.96718 6.94176 5.97881 7 5.97881C7.05824 5.97881 7.1159 5.96718 7.16959 5.9446C7.22328 5.92202 7.27193 5.88895 7.31267 5.84733L7 5.54166ZM6.13375 8.38308C5.79425 8.09491 5.45358 7.76008 5.201 7.41474C4.94375 7.06183 4.8125 6.74449 4.8125 6.48024H3.9375C3.9375 7.01458 4.19125 7.51508 4.49458 7.93041C4.80317 8.35333 5.20042 8.73774 5.56675 9.04983L6.13375 8.38308ZM4.8125 6.48024C4.8125 5.83449 5.10125 5.49499 5.39758 5.38358C5.69975 5.27099 6.18042 5.33108 6.68733 5.84849L7.31267 5.23658C6.63833 4.54824 5.80708 4.29624 5.09133 4.56399C4.37092 4.83349 3.9375 5.56499 3.9375 6.48024H4.8125ZM8.43325 9.05041C8.79958 8.73891 9.19683 8.35391 9.50542 7.93158C9.80875 7.51566 10.0625 7.01516 10.0625 6.48083H9.1875C9.1875 6.74508 9.05625 7.06241 8.799 7.41533C8.54642 7.76124 8.20575 8.09549 7.86683 8.38366L8.43325 9.05041ZM10.0625 6.48083C10.0625 5.56499 9.62908 4.83349 8.90867 4.56399C8.19292 4.29624 7.36167 4.54766 6.68733 5.23658L7.31267 5.84908C7.81958 5.33108 8.30083 5.27099 8.60183 5.38358C8.89933 5.49441 9.1875 5.83508 9.1875 6.48083H10.0625ZM5.56675 9.05041C6.02175 9.43716 6.38342 9.76791 7 9.76791V8.89291C6.7585 8.89291 6.64008 8.81416 6.13375 8.38308L5.56675 9.05041ZM7.86683 8.38366C7.35992 8.81474 7.2415 8.89291 7 8.89291V9.76791C7.61658 9.76791 7.97883 9.43716 8.43325 9.05041L7.86683 8.38366Z" fill="#6C7072"/>
</g>
<defs>
<clipPath id="clip0_930_4795">
<rect width="14" height="14" fill="white"/>
</clipPath>
</defs>
</svg>
